<svg id="Слой_1" data-name="Слой 1" xmlns="http://www.w3.org/2000/svg" viewBox="0 0 195.07 184.98"><defs><style>.cls-1{fill:#00953d;}.cls-2{fill:#029fdd;}.cls-3{fill:#e2010c;}.cls-4{fill:#028ad0;}.cls-5{fill:#048acf;}.cls-6{fill:#65c0ed;}.cls-7{fill:#5fbeec;}.cls-8{fill:#3ab3e6;}.cls-9{fill:#46b5e8;}.cls-10{fill:#b21514;}.cls-11{fill:#5cbceb;}.cls-12{fill:#049edb;}.cls-13{fill:#3db4e8;}.cls-14{fill:#3cb3e7;}.cls-15{fill:#079edb;}.cls-16{fill:#69c2ee;}.cls-17{fill:#3bb1e4;}.cls-18{fill:#7bcaf2;}.cls-19{fill:#09a1db;}.cls-20{fill:#39b0e0;}.cls-21{fill:#71c2eb;}.cls-22{fill:#6ec1ed;}.cls-23{fill:#46b5e7;}.cls-24{fill:#7fc9ef;}.cls-25{fill:#27aee4;}.cls-26{fill:#6ac4f0;}.cls-27{fill:#3db4e9;}.cls-28{fill:#03a1de;}.cls-29{fill:#39b1e6;}.cls-30{fill:#06a6e0;}.cls-31{fill:#05a0dd;}.cls-32{fill:#67c1ee;}.cls-33{fill:#03a0dd;}</style></defs><path class="cls-1" d="M238.09,181c-2.39,9.93-5.44,19.58-10.29,28.65a90,90,0,0,1-18.37,23.17c-16,15-35.15,22.7-56.92,24.37-3.89.3-5.56-.39-5.46-4.9.32-13.64.25-27.29,0-40.93-.06-3.35,1-5,4-6.38,27.37-12.84,54.66-25.85,82-38.82,1.34-.64,2.61-1.42,3.92-2.13,3-1.14,2.39,1.24,2.45,2.69C239.64,171.53,239.57,176.34,238.09,181Z" transform="translate(-44.45 -72.56)"/><path class="cls-2" d="M100,249.09l-8.07-5.91c-1.73-2.47-.91-4.57.86-6.62,1.13-1.32,2.84-2.27,3-4.55-3.32-1.17-6.74-.4-10.1-.53a11.19,11.19,0,0,1-5.31-.83c-1.9-1.65-1.66-3.76-.5-5.42a161.25,161.25,0,0,1,17.44-21.07,2.72,2.72,0,0,1,2.8-.61c4.69,4.16,4.88,10.39,7.16,15.66a7.85,7.85,0,0,0,.22,1c.75,2,.92,5,3,5.36s3.14-2.56,4.29-4.32a30.32,30.32,0,0,1,4.29-4.83c3.35-3.31,3.19-3.95-1.15-5.56-.78-.29-1.59-.5-2.37-.77-4.58-2.22-9.44-3.76-14-6.07-3.88-1.52-8-2.34-11.89-3.79-3.5-1.56-7.57-2-10.23-5.19-.61-4.32,5.85-13.73,9.92-14.46a3.27,3.27,0,0,1,3.42,1.52c2.59,5.76,3.16,6,7,1.08,9.67-12.3,19.71-24.28,29.67-36.35.53-.64,1-1.34,1.51-2,1.12-1.38,2.56-2.35,4.33-1.91,2.2.54,1.73,2.57,1.74,4.15q.09,14.73,0,29.45c-.06,13.32.2,26.63-.14,39.94-2.62,5.12-8.37,5.63-12.53,8.47a30.18,30.18,0,0,1-3.13,1.53c-7.34,2.91-12.34,7.72-14.55,15.65C105.8,245.08,105.23,249.73,100,249.09Z" transform="translate(-44.45 -72.56)"/><path class="cls-3" d="M147.17,179.39c0-7.61.25-14.12-.1-20.59-.19-3.45,1.17-5,4.05-6.39,22.87-10.73,45.68-21.58,68.53-32.36,6.61-3.12,6.43-3,9.73,4,1.6,3.37,2.77,7,4.92,10.12,1.59,2.35.2,4.3-2.28,5.46q-34.71,16.23-69.41,32.51C157.69,174.41,152.78,176.74,147.17,179.39Z" transform="translate(-44.45 -72.56)"/><path class="cls-4" d="M147.14,133.9c0-6.47.08-12.1,0-17.73-.05-2.21,1-3.23,2.86-4.11,14.61-7,29.46-13.49,43.68-21.26,3.52-1.93,6.61-1.2,9.41,1.09,3.07,2.52,5.87,5.35,8.83,8,1.56,1.4,1.91,2.8-.19,3.79C190.51,113.64,169.29,123.54,147.14,133.9Z" transform="translate(-44.45 -72.56)"/><path class="cls-5" d="M160,73.9c8.38,2.25,17.28,3,25.48,8.36L147.33,99.92c-1.71-2.73-.76-5.74-.75-8.59,0-5.76-.57-11.54.34-17.28L148,73A23.65,23.65,0,0,1,160,73.9Z" transform="translate(-44.45 -72.56)"/><path class="cls-6" d="M80,195l10,4c2.19,1.23,1.84,3,.77,4.65-4.27,6.75-9.84,12.48-15,18.49-2.23,2.59-4.43,1.58-5-1.94-.4-2.61.18-5.31-.65-7.88-.69-2.35,0-4.88-.94-7.21,0-.14-.2-.25-.55-.63-3.65,1.88-4.1,6.78-7.77,8.6a59.66,59.66,0,0,1-9.52-14.22,4.38,4.38,0,0,1,1-1.14A194.43,194.43,0,0,1,71.09,191,12.14,12.14,0,0,1,80,195Z" transform="translate(-44.45 -72.56)"/><path class="cls-7" d="M48.11,182.84C47,177.28,46,171.66,44.62,166.17a5.14,5.14,0,0,1,.71-4.1c4.56-2,7.38-6,10.62-9.44,2.81-3,5.49-6.13,8-9.37a15.21,15.21,0,0,1,4.64-4.43c4.12-2.52,8.85-3.63,13.21-5.62a8.81,8.81,0,0,1,4.29-.77c3.07,1.76,1.7,4.11.37,5.88-3.63,4.86-6.66,10.33-13.22,12.23-2.71.79-4.36,3.47-6.28,5.53-3,3.28-5.54,7-8.61,10.29-2.93,3.09-5.28,5.81-1.76,10.06,1.15,1.41.79,3.68-.5,5.14-2,2.32-3.53,5.24-6.48,6.7C47.3,187,49.39,184.44,48.11,182.84Z" transform="translate(-44.45 -72.56)"/><path class="cls-8" d="M49.94,188.08c.47-2.63,2.4-4.35,4.18-6,2.73-2.51,2.57-4.93.17-7.21s-2.27-3.72.31-6.26c5.28-5.19,9.2-11.66,14.64-16.77,1.74-1.63,3.25-3.21,6.14-3.57C79.48,147.8,86.83,136.44,86,133c3-4,7.14-5,11.89-4.4,1.81,4.27-.42,7.46-2.83,10.62-1.28.74-2.82,1.25-3.69,2.47-8.43,11.77-20.88,19.89-28.94,32-1.42,2.13-2.83,4-1.67,6.82a3.53,3.53,0,0,1-.91,4.15,21.36,21.36,0,0,0-7.62,13.95l-.88.26c-2.36-2.29,0-5.45-1.47-7.9C49.38,190,49.09,189,49.94,188.08Z" transform="translate(-44.45 -72.56)"/><path class="cls-9" d="M117,78a108.35,108.35,0,0,1,19.61-4.87c2,2.82.64,6,.84,9,.28,4.11.06,8.25.08,12.35-.08,2.44-1.11,2.27-2.13.59s-.64-3.88-.76-5.86c-.11-1.79.37-3.62-.73-6.27-5.19,7.36-11.59,13.1-15.39,20.89-4,2-6.15-1.87-9.23-2.82a6,6,0,0,1-1.1-1c-1.86-3.09-4.19-6-3.52-10C109.79,87.06,112.39,81.51,117,78Z" transform="translate(-44.45 -72.56)"/><path class="cls-10" d="M147.58,192c-1.09-3.54.09-5,2.86-6.29,25.13-11.79,50.15-23.8,75.27-35.58,2.81-1.32,5-3.82,8.38-4.1,1.09-.09,2.08-1.86,3,.47.74,1.82.28,2.94-1.12,3.73-2,1.12-4.14,1.95-6.22,2.93L151,190.54C149.93,191,148.88,191.47,147.58,192Z" transform="translate(-44.45 -72.56)"/><path class="cls-11" d="M74.08,98.38C80.89,94.2,86.92,88.84,94,85.08c1.48,1.72.41,3.06-.67,4.37-.75.9-1.73,1.57-2.49,2.44-1.6,1.83-4.5,3.57-3.63,6s3.84.64,5.86.89a5.47,5.47,0,0,1,3.25,1.06c1.82,3.47-.14,6.37-2,8.67-6.3,7.7-12.69,15.33-18.86,23.14-2.86,3.62-4.94,3.22-6.79-.5-.15-4.43-.7-8.89.44-13.27a2.66,2.66,0,0,1,1-1.14c2,.43,3.72.35,5.26-1.42,2.8-3.24,5.29-6.71,7.82-10.14,1.66-2.25.36-2.82-1.75-2.85a23.76,23.76,0,0,1-5.4-.28C74.06,101.6,72.45,100.79,74.08,98.38Z" transform="translate(-44.45 -72.56)"/><path class="cls-12" d="M131,256.2l-13.22-2.84c-2-1.25-3.19-2.72-1.59-5.13,4.7-7,9.07-14.29,15.05-20.37,1.14-1.16,2.31-2.74,4.19-2.08,2.06.71,1.44,2.74,1.52,4.32.15,3.31-.28,6.64.51,9.93V252C137.48,258.39,137.43,258.43,131,256.2Z" transform="translate(-44.45 -72.56)"/><path class="cls-3" d="M147.38,148.18c-1.16-3,.28-4.61,2.89-5.82q29.6-13.77,59.15-27.63c2.7-1.26,5.39-2.54,8-4,2-1.06,3.81-.82,4.67,1.12.93,2.11-1.45,2.29-2.59,2.84q-18.84,9-37.76,17.88-15.09,7.09-30.2,14.14C150.25,147.36,149.08,148.48,147.38,148.18Z" transform="translate(-44.45 -72.56)"/><path class="cls-13" d="M137,239c-2.31-3.79,0-8.12-1.44-12.23-2.89.15-3.72,2.85-5.28,4.48-5.28,5.49-8.74,12.36-13.39,18.33-1.49,1.91.83,2.5.91,3.8l-10-2.13a2.16,2.16,0,0,1,.06-2.35c4.72-5.46,7.83-12,12.14-17.71,1.7-2.25,3.58-4.25,4-7.17l12-7.11a1,1,0,0,1,1.45.66C137.3,224.69,138,231.85,137,239Z" transform="translate(-44.45 -72.56)"/><path class="cls-14" d="M71,212c1.86,2.53.58,5.45,1,8.17.13.78-.15,1.73.73,2.2s1.62-.2,2.1-.8c5-6.3,10-12.65,15.08-18.92,1.07-1.32.71-2.4,0-3.61l12,3.94a2.28,2.28,0,0,1-2.17,1.12c-4.65,2-6.79,6.51-9.6,10.24s-6.48,6.48-8.86,10.5a7.41,7.41,0,0,0-1.33,5.07c-2.32,2.34-4.69,1.21-7.06.1a3.45,3.45,0,0,1-3-3C69.92,222,67.85,216.8,71,212Z" transform="translate(-44.45 -72.56)"/><path class="cls-15" d="M96,100.13c-3.07-.73-6.06,1-9.23.09-2.12-.64-2.78-.94-1.46-3.17a27.13,27.13,0,0,1,5.41-6.9c1.55-1.36,3.64-2.45,3.34-5.07L98.2,82.2c4.56-.65,6.44,1.55,6.76,7.88l3.84,9.82C104.56,102.5,100.27,102.41,96,100.13Z" transform="translate(-44.45 -72.56)"/><path class="cls-16" d="M124,224c2.83.55,1.57,2,.56,3.08-5.51,6.07-8.07,14.2-14,20a22.52,22.52,0,0,0-2.7,4.16c-2.71-.41-5.49-.55-7.88-2.13,1.94-.11,2.86-1.4,3.55-3,.79-1.82,2-3.56,2.36-5.45C107.9,230.66,115.62,227,124,224Z" transform="translate(-44.45 -72.56)"/><path class="cls-17" d="M65,143.91a183.18,183.18,0,0,1-16.62,18.38c-1.36,1.36-2.09,1.1-3-.22,1-3.68.55-7.67,2.57-11.1,3-6,8.62-10.17,11.38-16.35C66.36,135.1,67.78,137.43,65,143.91Z" transform="translate(-44.45 -72.56)"/><path class="cls-18" d="M74.08,98.38c0,3.63,2.75,2.37,4.64,2.64,2.55.35,6.27-1.24,7.38.89s-2.2,4.27-3.64,6.38A57.08,57.08,0,0,1,74,118.53c-2.44,2.22-3,.88-3-1.52-2.82-4-.77-8.68-1.8-12.94A8.69,8.69,0,0,1,74.08,98.38Z" transform="translate(-44.45 -72.56)"/><path class="cls-19" d="M71,212c-.68,5,1.26,10.15-1,15l-9.14-13.91c.78-3.81,4.36-6,5.56-9.6a2.06,2.06,0,0,1,2.39-1.3,2.29,2.29,0,0,1,2,2.42C70.94,207.08,71,209.54,71,212Z" transform="translate(-44.45 -72.56)"/><path class="cls-20" d="M69.19,104.07c3.09,1,1.52,3.61,1.72,5.5A68.35,68.35,0,0,1,71,117l-.92.06c-3.25-.1-4.35,2.65-5.77,4.68a43.55,43.55,0,0,1-6.65,7.17c-1.16,1.06-2.33,2.61-4.11.83A2.89,2.89,0,0,1,54,127Z" transform="translate(-44.45 -72.56)"/><path class="cls-21" d="M54,127,54,130c1.38,1.95,4.12,2.55,5,5,.47,1,1.3,2.06.24,3.15-4,4.09-6.74,9.23-11.33,12.76-.29-6.72,2.26-12.95,3.38-19.43C51.56,129.91,52.1,127.92,54,127Z" transform="translate(-44.45 -72.56)"/><path class="cls-22" d="M105,90.08c-2.47-2.44-1.31-8-6.76-7.88,5.94-2.83,12.37-3.46,18.77-4.21C113.63,82.68,111.57,88.64,105,90.08Z" transform="translate(-44.45 -72.56)"/><path class="cls-23" d="M86,230.11c3,0,5.91-.06,8.87-.05,1.28,0,2.9-.27,3.42,1.25.4,1.16-.75,2-1.44,2.93-2,2.75-5.85,4.56-4.93,8.94-3-1.17-5.24-3.48-7.81-5.28C82.69,234.81,85.93,232.85,86,230.11Z" transform="translate(-44.45 -72.56)"/><path class="cls-24" d="M86,230.11c3,3.47-2,5-1.89,7.79-3.89-2.35-7.87-4.56-11-7.9l7.06-.1Z" transform="translate(-44.45 -72.56)"/><path class="cls-9" d="M137,112.07q0,15,0,30c-4.07-.82-1-4.92-3.34-6.88-7.26,7.91-13.81,16.43-20.62,24.72-5.06,6.16-10,12.4-15.25,18.42C96.3,180,95.05,182.6,92,182.09c-.76-.25-1.63-.87-2.26-.68-3.2,1-9.59,10.06-9.73,13.63-3.33-.26-5.76-3.07-9.13-3.17-.78-4.42,1.8-7.37,4.49-10.26,5-1.72,8-6.13,10.67-10,6.38-9.36,13.48-18.07,20.73-26.72,7.46-8.89,15.06-17.68,21.88-27.09a10.22,10.22,0,0,0,.92-2.31C131.47,113.14,133.8,111.67,137,112.07Z" transform="translate(-44.45 -72.56)"/><path class="cls-25" d="M92,182.09c7.79-6.75,13.55-15.26,20.06-23.12,6.83-8.25,13.58-16.57,20.42-24.82.67-.8,1.42-2.13,2.81-1.46,1.06.52.6,1.75.74,2.69.34,2.22-.83,4.67,1,6.64.3,25,.48,50-.08,75l-1-.13q0-34.87,0-69.76c0-1.12.89-2.89-1.08-3.28a2.61,2.61,0,0,0-2.61,1.12c-7.56,11.06-17.12,20.52-25.08,31.26-2.65,3.59-5.5,7-8.41,10.43-1,1.19-2,3.24-3.77,2.8s-2.13-2.77-2.79-4.41A9.85,9.85,0,0,1,92,182.09Z" transform="translate(-44.45 -72.56)"/><path class="cls-26" d="M99.88,204.09a2.48,2.48,0,0,1,2.17-1.12L116,209.08a2.31,2.31,0,0,1,.6,2.7,27.29,27.29,0,0,1-7.3,8.48,2.14,2.14,0,0,1-3.09-.36C104,214.67,102.76,209.05,99.88,204.09Z" transform="translate(-44.45 -72.56)"/><path class="cls-27" d="M106.17,219.9A15.72,15.72,0,0,0,116,209.07c2.68.64,6.47.73,7.11,3.41.51,2.17-2.55,4.18-4.45,6.06A67.08,67.08,0,0,0,112,227c-1.33,1.83-2.32,2.48-3.19-.28C108.08,224.42,106.19,222.52,106.17,219.9Z" transform="translate(-44.45 -72.56)"/><path class="cls-28" d="M76,182c-2.34,3-3.65,6.48-5.12,9.9a115,115,0,0,1-18.61,6.76c-1.69-6,1.54-10.07,5.57-13.76,1.09-1,3-2.07,2-3.53-3.74-5.29,1.16-8.11,3.52-10.76,5.44-6.08,9.42-13.55,17-17.74,2.66-1.46,4.06-5.11,6.19-7.63S90.05,139.3,94,139c1.29,1.57.58,3.21-.06,4.67-5,11.48-8.88,23.48-15,34.48C78.17,179.6,77.62,181.23,76,182Z" transform="translate(-44.45 -72.56)"/><path class="cls-29" d="M96,100.13l12.85-.23.21.14c.49,1.11-.14,1.84-.85,2.55A15.29,15.29,0,0,0,105,104.9c-8,9.45-16.1,18.83-22.92,29.21-4,2.79-9,3.3-13.17,5.8-1.53-2.9-2.81-5.76,1.09-7.9,2.16,1.2,3.25,1.18,5-1.57,3.59-5.78,8.58-10.42,12.43-16,2.41-3.48,6.32-5.76,7.82-10A11.26,11.26,0,0,0,96,100.13Z" transform="translate(-44.45 -72.56)"/><path class="cls-30" d="M82.07,134.11c-2.17-.34-1.24-1.37-.49-2.31Q93,117.61,104.37,103.41a3.7,3.7,0,0,1,3.53-1.31c.71,6.57-2.78,12-4.75,17.86a32.32,32.32,0,0,0-2.11,6.12c-.6,1.43-1.37,2.67-3.1,2.88-4.27.5-8,2.53-11.94,4.06Z" transform="translate(-44.45 -72.56)"/><path class="cls-31" d="M70,132c-1.88,2.42-.45,5.31-1.09,7.9l-4,4c-.13-.1-.39-.27-.37-.3,2.81-5.91-.86-7.57-5.59-8.55-1.84-1.49-5.4-1.3-5-5,5.85-3.3,8.92-9.27,13.25-14,2.61-2.86,2.57-1.14,2.79,1.07Q70,124.54,70,132Z" transform="translate(-44.45 -72.56)"/><path class="cls-32" d="M97.94,129l2.09-2.91c5.38-3.74,12.14-4,17.79-7,4-1.15,7.5-4.52,12.18-3a1.31,1.31,0,0,1,.29,2.12q-11.73,14.29-23.48,28.59c-6.09,7.43-13,14.37-17.83,22.56-2.69,4.58-7,7.26-9.52,11.64-.57,1-1.7,2.92-3.5,1,5.31-11.75,10.86-23.39,15.34-35.5.92-2.47,1.82-5,2.73-7.44C96.45,136.11,97,132.46,97.94,129Z" transform="translate(-44.45 -72.56)"/><path class="cls-33" d="M130,116l-12,4.09c-3.66.44-3.17-1.83-2.41-4,.56-1.57,2-2.6,3.15-3.78,4.1-4.26,4.11-4.25-.45-7.72-.12-.2-.23-.41-.34-.61-.77-3.29,1.51-5.46,3.32-7.36,4.82-5.09,7.62-12,14-16.22,2,5.26-.73,10.72,1.7,15.53l0,16.06C135.05,114.07,131.84,113.84,130,116Z" transform="translate(-44.45 -72.56)"/><path class="cls-32" d="M102,120.06q2.92-9,5.86-18L109,100c3.47.25,5.7,3.3,9,4h0c-2.49,7-7.32,12.27-12.82,17C104.37,121.68,102.28,122.91,102,120.06Z" transform="translate(-44.45 -72.56)"/><path class="cls-9" d="M102,120.06c3,1.82,4.14-1.13,5.38-2.56,3.71-4.31,7.06-8.93,10.55-13.44,7.35,2.41,7.57,3.3,2.18,8.78-1,1.06-2.12,2.09-3.07,3.23-1.42,1.7-1.77,3.26.94,4.05-5.58,3.26-11.76,4.65-18,5.93A9,9,0,0,1,102,120.06Z" transform="translate(-44.45 -72.56)"/></svg>