<svg id="Слой_1" data-name="Слой 1" xmlns="http://www.w3.org/2000/svg" viewBox="0 0 204.76 206.08"><defs><style>.cls-1{fill:#382693;}</style></defs><path class="cls-1" d="M185.63,246.85l1.78-10.39c6.9,3.08,13.11.92,19.2-2.68,1.1-.64,2.71-.41,4.52-.63a36,36,0,0,0-1.65-3.34c-3-4.79-.78-9.37,5.09-10.33,6.07-1,12.15-1.89,18.19-3,3.43-.64,6.22-.79,5.52,3.78,2,.18,3.6.41,5.23.47,5.88.2,12,2.73,16.91-3.51,1.74-2.22,5.47-3,8.41-4.13,4.12-1.6,7.44-.93,9.32,3.7.43,1.05,1.92,1.79,3.07,2.4,1.75.93,3.63,1.62,5.64,2.5.14-1.51.29-3.08.54-5.72l7.82,8.49c-2.83,2.57-5,4.57-7.18,6.49-5.5,4.8-4.67,10,1.52,13.84,1.79,1.11,2.68,4.42,3,6.85.16,1.27-1.77,2.9-3,4.18a4.28,4.28,0,0,1-2.32.82c-4.16.65-7.85,2-8.13,6.93-.21,3.9.09,7.82,0,11.73a7.71,7.71,0,0,1-.78,3.65c-2.74,4.59-7.78,4.78-12.07,4.92-13.8.42-27.63.15-42.29.15,0-5.21.09-10.13,0-15.05a43.84,43.84,0,0,0-.81-8.89,10.35,10.35,0,0,0-11-8.1,10.23,10.23,0,0,0-9.31,10c-.22,7.11-.06,14.24-.06,22-6.42,0-12.2-.08-18,0-4.84.09-8.85,1.9-10.84,6.59A10.45,10.45,0,0,0,182,305.35c4.07.67,8.3.44,12.45.56,2.48.07,5,0,8.13,0,.19,19.12-2,38.57,11.41,54.42-3.37,2.86-6,5.29-4.56,10.14,1,3.22.58,6.87.76,10.32a3.11,3.11,0,0,1-.34,1.4,43,43,0,0,0-3.05,7.8c-10,5.76-21.16,5.56-32.31,2.7a41.67,41.67,0,0,1-11.82-5.53c-1.29-.83-1.75-3.71-1.75-5.66-.11-27.17-.06-54.34-.08-81.51a49,49,0,0,0-.42-7.47c-.88-5.47-4.56-8.68-9.81-8.85a10.3,10.3,0,0,0-10.71,7.95,29.25,29.25,0,0,0-.68,6.94q-.06,27.75,0,55.5v4.38l-1.37.72a51.27,51.27,0,0,1-3.52-5.13c-2.65-5.12-7.06-6.14-11.26-2.21-2.63,2.46-4.86,5.36-7.46,7.88a33.27,33.27,0,0,1-4.76,3.2c-2.06-3.86-5.13-3.91-8.84-2.73-4,1.26-5.76-.56-4.45-4.59s3.11-7.68,4.72-11.5c.45-1.06,1.69-2.5,1.36-3.06-4.76-8,1.18-17.14-3-25.42-1.59-3.14-2.8-5.54-6-7.09-5.1-2.45-5.1-3.67-2.27-8.32a12.15,12.15,0,0,0,1.56-6.86c-.46-5.55-.76-10.29,3.18-15.51,2.68-3.55,1.83-9.8,2.38-14.87a20.78,20.78,0,0,0-.56-4.52,29.93,29.93,0,0,1,5.2-1.07c3.88-.08,6.72-.68,8.29-5.23.76-2.2,4.5-3.57,7.11-4.87,2.39-1.19,3.36-1.63,2.14-5-2-5.62-2.71-11.78-3.46-17.77-.2-1.61,1.39-3.44,2.5-5.92,3,4.43,6.2,4.77,10.57,3.78,4.22-.95,9-1.35,11.89,4.07.88,1.63,4.64,2.07,7.16,2.36,2,.24,4.2-.58,6.64-1,.07-.84.21-1.78.22-2.72,0-5,1-5.51,5.46-3.54,1.65.72,3.7.58,5.58.68,2.81.16,5,.51,5.28,4.25.15,2.2,2.92,5.28,2.19,6.3-3.8,5.3,1.49,7.12,3.45,9.92C180.34,244.39,182.87,245.15,185.63,246.85ZM150,277.15c7,0,11.85-4.61,12-11.31.12-7-5-12.67-11.47-12.62-6.72.05-12.34,5.41-12.43,11.85A11.88,11.88,0,0,0,150,277.15Z" transform="translate(-90.46 -188.57)"/><path class="cls-1" d="M243.84,351.84c-3.44,3.45-5.64,2.78-8.37.37-9-7.94-11.61-18.29-11.93-29.61-.14-5.3,0-10.6,0-16.36h37.27c-1.17,3.89-2.18,7.25-3.18,10.56-3.82-.77-11.73,3.18-13,6a91,91,0,0,1-4.59,9.66c-2.81,4.6-2.46,8.66.69,12.91C242.11,347.3,242.83,349.72,243.84,351.84Z" transform="translate(-90.46 -188.57)"/><path class="cls-1" d="M206.16,191.71c-1.33,3.34,1.86,4.65,4.11,6.26l-12.77,5.48c-.9-1.14-3.34-3.16-4.24-5.73-.6-1.7.42-5.27,1.79-6s4.27.63,6.66,1.12c.41-.78.92-3.2,1.88-3.39a34.06,34.06,0,0,1,9.14-.22c.46,0,1,2.15,1,3.32,0,.76-.82,2.16-1.33,2.18a6,6,0,0,1-3.49-1c-.67-.46-.85-1.67-1.24-2.54Z" transform="translate(-90.46 -188.57)"/><path class="cls-1" d="M217.36,190.24c3.38-.57,6.75-1.2,10.15-1.67.44-.06,1.45.8,1.4,1.09a4,4,0,0,1-1.14,2.42c-3.57,2.62-7,1.24-10.38-.25Z" transform="translate(-90.46 -188.57)"/><path class="cls-1" d="M216.17,213.14l-10.25,2.14c1.74-2.27,2.87-5,4.82-5.84,1.39-.59,3.87,1.45,5.87,2.31Z" transform="translate(-90.46 -188.57)"/></svg>