<svg width="189" height="42" viewBox="0 0 189 42" fill="none" xmlns="http://www.w3.org/2000/svg">
<g clip-path="url(#clip0)">
<path d="M32.6201 18.02V38.12C38.4801 34.48 42.3901 28.01 42.3901 20.61C42.3901 19.73 42.3201 18.87 42.2101 18.02H32.6201V18.02Z" fill="#0075FF"/>
<path d="M26.91 18.02H19.93V12.38H40.67C37.49 5.09 30.23 0 21.77 0H20.61C17.53 0 14.61 0.7 11.99 1.91V12.38H6.29V5.8C2.42 9.55 0 14.8 0 20.61C0 26.43 2.42 31.67 6.29 35.42V18.07H11.99V39.31C14.62 40.52 17.53 41.22 20.61 41.22H21.77C23.55 41.22 25.26 40.97 26.9 40.55V18.02H26.91Z" fill="#0075FF"/>
<path d="M51.3999 6.64001H61.3499C64.0999 6.64001 66.4499 7.61001 68.3799 9.54001C70.3399 11.49 71.3199 13.83 71.3199 16.57C71.3199 19.34 70.3399 21.67 68.3799 23.57C66.4199 25.5 64.0799 26.47 61.3499 26.47H57.0999V34.98H51.3999V6.64001ZM64.3599 13.56C63.5199 12.7 62.5099 12.28 61.3499 12.28H57.0999V20.82L61.3499 20.84C62.5099 20.84 63.5099 20.42 64.3599 19.57C65.1999 18.73 65.6299 17.72 65.6299 16.56C65.6299 15.4 65.1999 14.41 64.3599 13.56Z" fill="white"/>
<path d="M97.2602 10.65C100.08 13.47 101.5 16.87 101.5 20.83C101.5 24.8 100.09 28.19 97.2602 30.99C94.4502 33.78 91.0602 35.17 87.1002 35.17C83.1302 35.16 79.7402 33.76 76.9402 30.99C74.1302 28.18 72.7202 24.79 72.7202 20.83C72.7202 16.88 74.1302 13.49 76.9402 10.65C79.7602 7.83003 83.1502 6.41003 87.1002 6.41003C91.0502 6.41003 94.4402 7.82003 97.2602 10.65ZM81.0002 14.69C79.3102 16.4 78.4702 18.43 78.4702 20.79C78.4702 23.17 79.3102 25.2 81.0002 26.89C82.6802 28.57 84.7102 29.4 87.1002 29.4C89.4602 29.4 91.4802 28.56 93.1802 26.89C94.8802 25.22 95.7302 23.18 95.7302 20.79C95.7302 18.42 94.8802 16.39 93.1802 14.69C91.4902 13 89.4702 12.16 87.1002 12.16C84.7002 12.16 82.6702 13 81.0002 14.69Z" fill="white"/>
<path d="M103.93 6.64001H113.18C116.18 6.64001 118.65 7.60002 120.6 9.52002C121.55 10.47 122.22 11.37 122.62 12.21C123.1 13.24 123.34 14.49 123.34 15.95V16.69C123.34 18.6 122.74 20.4 121.55 22.09C120.69 23.29 119.56 24.16 118.16 24.71L124.75 34.98H117.79L109.65 22.45V34.98H103.95L103.93 6.64001ZM113.72 20.12C114.75 20.12 115.64 19.73 116.37 18.94C117.1 18.15 117.46 17.22 117.46 16.13C117.46 15.1 117.08 14.19 116.34 13.41C115.57 12.66 114.39 12.29 112.82 12.29H109.62V20.11H111.82V20.13H113.72V20.12Z" fill="white"/>
<path d="M145.78 6.64001V12.28H138.82V34.97H133.11V12.28H126.13V6.64001H145.78Z" fill="white"/>
<path d="M155.71 6.06006L168.65 34.9801H162.48L160.56 30.6701H150.86L148.94 34.9801H142.79L155.71 6.06006ZM158.31 25.6401L155.73 19.6501L153.11 25.6401H158.31Z" fill="white"/>
<path d="M176.81 6.64001V29.32H188.2V34.98H171.11V6.64001H176.81Z" fill="white"/>
</g>
<defs>
<clipPath id="clip0">
<rect width="188.2" height="41.23" fill="white"/>
</clipPath>
</defs>
</svg>
