<svg width="163" height="34" viewBox="0 0 163 34" fill="none" xmlns="http://www.w3.org/2000/svg">
<g clip-path="url(#clip0)">
<path d="M40.86 0H0V33.91H40.86V0Z" fill="#0075FF"/>
<path d="M6.47021 2.78992H12.1702V31.1299H6.47021V2.78992Z" fill="#131212"/>
<path d="M6.47021 8.44995H17.7602V13.89H6.47021V8.44995Z" fill="#0075FF"/>
<path d="M37.5201 2.78992V8.42992H30.5601V31.1199H24.8501V8.42992H17.8701V2.78992H37.5201Z" fill="#131212"/>
<path d="M47.5503 3.01001H57.3603C60.0703 3.01001 62.3803 3.96001 64.2903 5.87001C66.2203 7.79001 67.1803 10.1 67.1803 12.8C67.1803 15.53 66.2203 17.82 64.2903 19.7C62.3603 21.61 60.0503 22.56 57.3603 22.56H53.1703V30.95H47.5603V3.01001H47.5503ZM60.3203 9.83001C59.4903 8.99001 58.5003 8.57001 57.3603 8.57001H53.1703V16.99L57.3603 17.01C58.5003 17.01 59.4903 16.59 60.3203 15.76C61.1503 14.93 61.5703 13.94 61.5703 12.8C61.5703 11.66 61.1503 10.67 60.3203 9.83001Z" fill="white"/>
<path d="M78.6004 26.5999C76.7704 26.5799 75.2104 25.9199 73.9104 24.6299C72.5904 23.3099 71.9204 21.7099 71.9204 19.8399C71.9204 17.9899 72.5804 16.3999 73.9104 15.0499C75.1904 13.7499 76.7504 13.0899 78.6004 13.0699V8.56995C75.5504 8.58995 72.9204 9.69995 70.7304 11.8899C68.5204 14.1199 67.4204 16.7799 67.4204 19.8799C67.4204 22.9899 68.5204 25.6499 70.7304 27.8499C72.9004 30.0099 75.5304 31.0999 78.6004 31.1299V26.5999Z" fill="white"/>
<path d="M78.6001 2.78992H87.8501C90.8501 2.78992 93.3201 3.74992 95.2701 5.66992C96.2201 6.61992 96.8901 7.51992 97.2901 8.35992C97.7601 9.38992 98.0001 10.6399 98.0001 12.0999V12.8399C98.0001 14.7499 97.4001 16.5499 96.2101 18.2399C95.3501 19.4399 94.2201 20.3099 92.8201 20.8599L99.4101 31.1299H92.4501L84.3101 18.5999V31.1299H78.6101L78.6001 2.78992ZM88.3901 16.2699C89.4201 16.2699 90.3101 15.8799 91.0401 15.0899C91.7701 14.2999 92.1301 13.3699 92.1301 12.2799C92.1301 11.2499 91.7501 10.3399 91.0101 9.55992C90.2401 8.80992 89.0601 8.43992 87.4901 8.43992H84.2901V16.2599H86.4901V16.2799H88.3901V16.2699Z" fill="#0075FF"/>
<path d="M120.45 2.78992V8.42992H113.49V31.1199H107.78V8.42992H100.8V2.78992H120.45Z" fill="#0075FF"/>
<path d="M130.38 2.20996L143.32 31.13H137.15L135.23 26.82H125.53L123.61 31.13H117.46L130.38 2.20996ZM132.98 21.79L130.4 15.8L127.78 21.79H132.98Z" fill="#0075FF"/>
<path d="M151.48 2.78992V25.4699H162.87V31.1299H145.78V2.78992H151.48Z" fill="#0075FF"/>
</g>
<defs>
<clipPath id="clip0">
<rect width="162.87" height="33.91" fill="white"/>
</clipPath>
</defs>
</svg>
