<svg width="315" height="406" viewBox="0 0 315 406" fill="none" xmlns="http://www.w3.org/2000/svg">
<g clip-path="url(#clip0)">
<path d="M45.4902 296.27C45.5102 317.42 45.5602 338.56 45.6402 359.69C45.6702 360.14 45.6802 360.63 45.6802 361.15C45.6802 360.63 45.6602 360.15 45.6402 359.69C45.5602 338.56 45.5102 317.42 45.4902 296.27Z" fill="#0075FF"/>
<path d="M14.98 353.16C10.29 350.4 5.25 347.4 0 344.18C5.25 347.4 10.29 350.39 14.98 353.16Z" fill="#0075FF"/>
<path d="M46.44 106.47C46.17 106.33 45.86 106.17 45.5 105.97C45.86 106.17 46.16 106.33 46.44 106.47Z" fill="#0075FF"/>
<path d="M43.9102 104.66V104.35L44.2002 104.24C44.5002 104.13 44.7902 104.07 45.0702 104.07C45.8002 104.07 46.3502 104.43 46.8302 104.74C46.9402 104.81 47.0602 104.89 47.1702 104.95C90.0902 130.44 133.01 155.94 175.9 181.47C176.46 181.81 176.9 181.96 177.3 181.96C177.7 181.96 178.12 181.81 178.65 181.5C188.36 175.65 198.09 169.85 207.83 164.04L216.81 158.68C217.1 158.51 217.38 158.33 217.67 158.14C205.96 150.93 12.3702 35.96 0.450195 29.15V343.93C8.1602 348.66 15.3902 352.88 21.7702 356.62C31.8402 362.51 39.9302 367.25 43.9102 370.47V104.66Z" fill="#0075FF"/>
<path d="M45.9302 374.27C46.6802 374.74 47.6402 375.24 48.9102 375.8C49.4302 376.1 49.9502 376.3 50.4802 376.47C49.9502 376.31 49.4202 376.1 48.9102 375.8C47.6402 375.25 46.6902 374.74 45.9302 374.27Z" fill="#0075FF"/>
<path d="M44.3499 371.43C43.9899 371.11 43.5799 370.78 43.1299 370.43C43.5899 370.78 43.9899 371.11 44.3499 371.43Z" fill="#0075FF"/>
<path d="M44.3501 104.66C44.6301 104.56 44.8801 104.52 45.1101 104.53C45.0901 104.53 45.0801 104.52 45.0701 104.52C44.8501 104.53 44.6101 104.57 44.3501 104.66Z" fill="#0075FF"/>
<path d="M80.8002 374.79C80.8402 374.79 80.8802 374.78 80.9102 374.78C80.8402 374.78 80.7702 374.78 80.7002 374.78C80.7402 374.78 80.7602 374.79 80.8002 374.79Z" fill="#0075FF"/>
<path d="M70.4502 364.76C70.5102 364.76 70.5702 364.76 70.6202 364.77C70.5802 364.77 70.5402 364.75 70.5002 364.75C70.4802 364.75 70.4602 364.76 70.4502 364.76Z" fill="#0075FF"/>
<path d="M93.9302 354.25C94.0102 354.25 94.0902 354.24 94.1702 354.24C94.1402 354.24 94.1102 354.22 94.0702 354.22C94.0202 354.22 93.9702 354.25 93.9302 354.25Z" fill="#0075FF"/>
<path d="M60.45 374.62C59.71 375.07 58.89 375.3 58.02 375.43C58.89 375.3 59.72 375.07 60.45 374.62Z" fill="#0075FF"/>
<path d="M53.3999 376.89C53.5399 376.89 53.6799 376.87 53.8199 376.86C53.4299 376.87 53.0499 376.88 52.6699 376.86C52.9099 376.87 53.1499 376.89 53.3999 376.89Z" fill="#0075FF"/>
<path d="M99.2402 361.12C99.2402 361.13 99.2402 361.13 99.2402 361.14C99.4802 362.39 99.7002 363.64 99.9002 364.89C99.6902 363.64 99.4702 362.39 99.2402 361.14C99.2502 361.13 99.2402 361.13 99.2402 361.12Z" fill="#0075FF"/>
<path d="M60.4502 374.62C61.6702 373.96 62.6002 372.92 63.4202 371.75C62.6102 372.92 61.6702 373.95 60.4502 374.62Z" fill="#0075FF"/>
<path d="M90.3801 291.74C90.1601 291.75 89.9601 291.71 89.8301 291.6C89.9501 291.7 90.1201 291.75 90.3201 291.75C90.3401 291.75 90.3701 291.74 90.3801 291.74Z" fill="#0075FF"/>
<path d="M46.9401 105.35C46.9201 105.34 46.9001 105.33 46.8901 105.32C46.9001 105.33 46.9201 105.34 46.9401 105.35C65.7201 116.5 84.4901 127.66 103.27 138.81C84.4901 127.66 65.7101 116.5 46.9401 105.35Z" fill="#0075FF"/>
<path d="M179.54 183.36C150.81 200.49 122.12 217.59 93.3698 234.72L93.2498 234.79C92.5098 235.22 91.6598 235.7 91.5398 236.28C91.3298 254.44 91.4298 272.28 91.5398 289.54L283.36 175.92L313.54 158.04C305.03 152.91 296.36 147.77 287.97 142.79C282.49 139.54 277.01 136.3 271.57 133.04C271.07 132.79 270.58 132.47 270.12 132.16C269.32 131.63 268.55 131.12 267.72 130.94C250.35 140.96 232.72 151.55 215.68 161.78C203.82 168.92 191.58 176.27 179.54 183.36Z" fill="#0075FF"/>
<path d="M219.92 156.85L240.75 144.42L265.66 129.56L47.58 0L2.38 26.55L1.5 27.07L152.09 116.55L219.92 156.85Z" fill="#0075FF"/>
<path d="M201.38 169.86C194.02 174.26 186.67 178.65 179.31 182.98C164.94 191.55 150.58 200.1 136.23 208.66C150.59 200.1 164.95 191.55 179.31 182.98C186.67 178.65 194.03 174.26 201.38 169.86Z" fill="#0075FF"/>
<path d="M291.01 245.04C291.37 245.04 291.74 245.05 292.1 245.05C292.46 245.05 292.82 245.05 293.17 245.03C292.45 245.06 291.73 245.05 291.01 245.04Z" fill="#0075FF"/>
<path d="M268.69 314.14C268.93 314.14 269.15 314.1 269.35 314.02C269.14 314.1 268.91 314.14 268.65 314.13C268.66 314.13 268.67 314.14 268.69 314.14Z" fill="#0075FF"/>
<path d="M250.82 285.92C250.86 285.92 250.9 285.9 250.94 285.9C250.78 285.91 250.62 285.9 250.47 285.88C250.59 285.89 250.7 285.92 250.82 285.92Z" fill="#0075FF"/>
<path d="M208.87 317.34C208.99 317.34 209.11 317.35 209.24 317.36C209.16 317.36 209.09 317.32 209.02 317.32C208.96 317.32 208.91 317.34 208.87 317.34Z" fill="#0075FF"/>
<path d="M259.16 276.08C259.36 276.07 259.56 276.04 259.75 276.05C259.68 276.05 259.61 276.02 259.54 276.02C259.41 276.02 259.29 276.07 259.16 276.08Z" fill="#0075FF"/>
<path d="M238.56 273.01C238.64 273.01 238.71 273.02 238.79 273.02C238.74 273.02 238.7 273 238.65 273C238.62 273.01 238.59 273.01 238.56 273.01Z" fill="#0075FF"/>
<path d="M216.99 373.57C217.04 373.57 217.08 373.56 217.13 373.56C217.01 373.57 216.9 373.55 216.78 373.54C216.85 373.55 216.92 373.57 216.99 373.57Z" fill="#0075FF"/>
<path d="M265.3 297.42C265.43 298.81 265.52 300.21 265.55 301.61C265.58 302.16 265.58 302.7 265.59 303.24C265.57 302.7 265.57 302.16 265.55 301.61C265.52 300.21 265.43 298.82 265.3 297.42Z" fill="#0075FF"/>
<path d="M314.67 202.27C314.65 192.61 314.65 183.03 314.66 173.42V159.84C272.37 184.86 230.04 209.94 187.71 235.02C157.79 252.75 127.88 270.47 97.9499 288.19C97.3299 288.48 96.4299 289.06 95.4699 289.67C93.5299 290.91 91.5199 292.19 90.3199 292.19C89.9999 292.19 89.7399 292.1 89.5399 291.94L89.3799 291.81V291.6V289.65V270.77C89.3799 225.19 89.3799 179.62 89.4199 134.04C89.4199 132.84 89.0799 132.25 88.0199 131.63C77.6599 125.52 67.3199 119.37 56.9799 113.23L46.9599 107.28C46.6599 107.1 46.3399 106.93 45.9599 106.73L45.9399 106.72C45.9699 137.23 45.9499 167.77 45.9299 198.31C45.8999 251.22 45.8699 305.94 46.0799 359.67C46.1599 361.04 46.1199 362.72 46.0899 364.5C46.0299 367.36 45.9699 370.32 46.3799 372.1C47.7999 374.14 50.4999 375.41 53.4599 375.41C54.0699 375.41 54.6799 375.35 55.3199 375.24L56.0499 375.19C57.5899 375.08 59.0399 374.97 60.2399 374.24C62.1299 373.21 63.3299 371.18 64.4899 369.22C64.7499 368.77 65.0199 368.33 65.2999 367.87C67.0899 365.48 68.7999 364.32 70.4999 364.32C73.1599 364.32 75.1699 367.19 76.9499 369.73C78.3399 371.71 79.6499 373.58 80.8699 373.58C81.0399 373.58 81.2099 373.54 81.3499 373.48C84.8899 371.7 86.2499 367.21 87.4499 363.25C88.0799 361.15 88.6799 359.18 89.5399 357.7C90.9199 355.11 92.4499 353.8 94.0599 353.8C96.7599 353.8 98.8599 357.56 99.6799 361.08C100.4 364.87 100.96 368.69 101.5 372.4C102.39 378.47 103.32 384.74 104.93 390.89C105.71 394.55 105.23 397.42 104.85 399.73C104.5 401.88 104.24 403.43 105.07 404.73C105.59 405.62 105.94 405.71 106.07 405.71C106.57 405.71 107.18 404.4 107.27 403.13C107.35 401.84 107.15 400.59 106.95 399.27C106.84 398.53 106.72 397.77 106.66 397.05C105.93 393.1 106.02 389.11 106.94 384.87L107.34 382.52C107.93 379.03 108.49 375.74 109.39 372.29C110.61 368.6 113.41 366.03 116.2 366.03C117.44 366.03 119.26 366.55 120.85 368.98C123.04 371.72 123.88 375.01 124.69 378.18C124.86 378.86 125.03 379.53 125.22 380.19C128.13 389.18 128.06 394.08 128.02 397.01C128 398.72 128.01 399.47 128.44 399.94C129.43 399.18 129.39 396.67 129.37 395.13C129.36 394.62 129.36 394.19 129.38 393.94C129.41 392.98 129.45 392.04 129.48 391.1C129.56 389.03 129.64 387.08 129.66 385.03L129.73 383.79C130.1 376.81 130.49 369.59 131.64 362.52C132.58 357.91 133.8 352.61 136.36 348.1C138.69 344.56 141.69 342.52 144.57 342.52C146.82 342.52 148.88 343.77 150.52 346.11C151 346.7 151.95 347.04 153.13 347.04C153.68 347.04 154.26 346.96 154.8 346.81C156.77 346.31 157.04 345.17 157.48 343.4C157.83 342.42 158.05 341.48 158.29 340.5C158.51 339.57 158.74 338.62 159.11 337.54C160.26 335.28 162.01 334.04 164.03 334.04C165.92 334.04 167.85 335.12 169.34 337.03C169.98 337.94 170.29 339.3 170.59 340.61C171.16 343.11 171.65 344.75 173.19 344.75C173.56 344.75 173.99 344.66 174.47 344.48C174.97 343.99 175.79 342.42 176.03 337.36C176.77 329.58 178.1 324.82 183.31 320.38C183.84 319.92 184.36 319.32 184.87 318.74C186.13 317.3 187.42 315.82 189.28 315.82C189.58 315.82 189.88 315.86 190.18 315.94C193.22 316.73 193.96 319.51 194.61 321.96C195.26 324.39 195.74 325.89 197.43 325.89C200.6 325.37 201.63 323.35 202.62 321.38C202.87 320.9 203.11 320.42 203.4 319.95C204.78 318.11 207.04 316.88 209.02 316.88C210.19 316.88 211.24 317.3 212.05 318.11C214.66 320.89 215 324.49 215.34 327.97C215.43 328.9 215.52 329.82 215.66 330.76C216.13 335.99 216.58 340.93 216.38 346.17C216.35 347.63 216.43 349.09 216.51 350.5C216.63 352.7 216.76 354.98 216.44 357.29C216.22 358.83 215.9 360.36 215.59 361.83C215.07 364.27 214.54 366.79 214.5 369.29C214.76 370.98 215.68 372.04 216.9 372.04C218.08 372.04 219.13 371.08 219.56 369.64C219.85 367.84 219.63 365.92 219.41 364.06C219.29 363.03 219.16 361.96 219.13 360.95C217.83 348.04 219.01 334.88 220.16 322.15C220.34 320.12 220.53 318.09 220.7 316.02L220.75 315.71C224.8 291.39 227.72 273.82 237.29 272.7C237.74 272.62 238.2 272.58 238.66 272.58C243.94 272.58 248.36 278.02 249.42 283.04C249.64 283.83 250.29 284.39 250.99 284.39C251.4 284.39 251.76 284.19 251.99 283.88C252.35 283.19 252.46 282.51 252.58 281.79C252.74 280.86 252.9 279.9 253.59 279.04C254.82 277.01 257.27 275.6 259.55 275.6C261.34 275.6 262.71 276.46 263.45 278.1C265.26 285 266.02 291.95 266.7 299.06C266.81 300.95 266.73 302.92 266.66 304.82C266.53 308.11 266.41 311.22 267.43 312.28C267.68 312.54 268 312.67 268.42 312.67C268.53 312.67 268.64 312.66 268.7 312.66C270.75 312.05 270 307.01 269.55 303.99C269.35 302.68 269.21 301.73 269.28 301.3C269.15 295.75 269.14 291.51 269.27 287.54C269.36 282.21 270.11 276.62 271.69 269.45C272.31 264.4 273.68 259.62 275.89 254.85C280.69 243.66 284.1 243.62 291.56 243.53C292.69 243.52 293.92 243.5 295.24 243.45C296.26 243.32 296.69 242.5 297.2 241.55C297.32 241.33 297.44 241.1 297.56 240.89C298.61 238.99 299.62 237.12 300.4 235.03C301.57 230.84 302.72 227.11 303.99 223.31C304.98 220.42 306.99 218.29 310.25 216.63C310.58 216.4 310.91 216.17 311.25 215.95C312.87 214.87 314.4 213.85 314.87 212.18C314.86 210.71 314.82 209.25 314.78 207.8C314.72 205.97 314.66 204.11 314.67 202.27Z" fill="#0075FF"/>
<path d="M314.17 214.18C313.17 215.26 311.75 216.07 310.49 216.95C311.75 216.07 313.17 215.27 314.17 214.18Z" fill="#0075FF"/>
<path d="M293.16 245.03C293.41 245.04 293.66 245.04 293.9 245.04C293.96 245.04 294.02 245.03 294.08 245.03C293.78 245.04 293.48 245.04 293.16 245.03Z" fill="#0075FF"/>
<path d="M273.62 262.05C272.92 264.45 272.42 266.92 272.1 269.48C272.42 266.92 272.93 264.46 273.62 262.05Z" fill="#0075FF"/>
<path d="M128.32 401.58C128.37 401.58 128.42 401.61 128.48 401.61C128.68 401.61 128.89 401.58 129.11 401.51C128.83 401.59 128.57 401.6 128.32 401.58Z" fill="#0075FF"/>
<path d="M116.12 366.48C116.2 366.48 116.28 366.49 116.36 366.49C116.31 366.49 116.26 366.47 116.21 366.47C116.18 366.47 116.15 366.48 116.12 366.48Z" fill="#0075FF"/>
<path d="M144.39 342.98C144.5 342.98 144.6 342.98 144.71 342.98C144.66 342.98 144.62 342.96 144.57 342.96C144.51 342.97 144.45 342.98 144.39 342.98Z" fill="#0075FF"/>
<path d="M173.46 346.28C173.5 346.28 173.54 346.27 173.58 346.27C173.45 346.27 173.32 346.25 173.2 346.24C173.29 346.25 173.37 346.28 173.46 346.28Z" fill="#0075FF"/>
<path d="M189.15 316.28C189.44 316.27 189.74 316.28 190.06 316.37C189.78 316.3 189.52 316.27 189.27 316.27C189.22 316.26 189.19 316.28 189.15 316.28Z" fill="#0075FF"/>
<path d="M197.58 327.38C197.74 327.38 197.9 327.37 198.07 327.36C197.85 327.38 197.66 327.36 197.46 327.36C197.51 327.36 197.54 327.38 197.58 327.38Z" fill="#0075FF"/>
<path d="M163.35 334.58C163.59 334.54 163.83 334.48 164.07 334.49C164.05 334.49 164.04 334.48 164.02 334.48C163.79 334.48 163.57 334.55 163.35 334.58Z" fill="#0075FF"/>
</g>
<defs>
<clipPath id="clip0">
<rect width="314.86" height="405.7" fill="white"/>
</clipPath>
</defs>
</svg>
