<svg width="22" height="24" viewBox="0 0 22 24" fill="none" xmlns="http://www.w3.org/2000/svg">
<path d="M2.12368 21.8504C-0.745654 19.0244 -0.692176 14.4671 2.19174 11.6513L12.4924 1.59377C14.6687 -0.531163 18.2061 -0.531351 20.3825 1.59377C22.5379 3.69817 22.5405 7.09356 20.3825 9.20045L11.4034 17.9591C9.93726 19.3905 7.54191 19.3706 6.10067 17.9123C4.71216 16.5075 4.7567 14.2808 6.17197 12.8989L13.2308 6.01605C13.5344 5.72008 14.0318 5.71502 14.3419 6.00475L15.4645 7.05376C15.7746 7.34354 15.7799 7.81839 15.4763 8.11436L8.41828 14.9966C8.17608 15.2331 8.16115 15.626 8.38646 15.854C8.60115 16.0712 8.93866 16.0748 9.15685 15.8618L18.136 7.10312C19.0992 6.16272 19.0992 4.63164 18.1355 3.69072C17.1932 2.77071 15.6823 2.77024 14.7395 3.69072L4.43878 13.7482C2.73167 15.4151 2.70535 18.1132 4.3803 19.7629C6.05043 21.4079 8.75009 21.4099 10.4233 19.7763L18.8727 11.5263C19.176 11.2301 19.6735 11.2248 19.9838 11.5143L21.1072 12.5626C21.4175 12.8522 21.4232 13.327 21.1198 13.6232L12.6704 21.8731C9.74481 24.7296 5.0125 24.6958 2.12368 21.8504Z" fill="white"/>
</svg>
