<svg width="851" height="351" viewBox="0 0 851 351" fill="none" xmlns="http://www.w3.org/2000/svg">
<g clip-path="url(#clip0)">
<path d="M425.518 0L0 91.2305L425.518 351L851.035 91.2305L425.518 0ZM460.928 80.4727L491.063 70.875L526.016 80.4727L496.056 90.7734L460.928 80.4727ZM494.685 91.2305L462.229 102.41L426.995 91.2305L459.556 80.8945L494.685 91.2305ZM459.416 80.0156L426.854 70.4531L457.095 61.5586L489.551 70.4531L459.416 80.0156ZM458.044 80.4727L425.482 90.7734L392.921 80.4727L425.482 70.875L458.044 80.4727ZM391.585 80.0156L361.449 70.4531L393.905 61.5586L424.146 70.4531L391.585 80.0156ZM390.108 80.4727L354.979 90.7734L325.019 80.4727L359.972 70.875L390.108 80.4727ZM391.479 80.8945L424.041 91.2305L388.807 102.41L356.35 91.2305L391.479 80.8945ZM387.154 102.938L348.86 115.066L316.65 102.938L354.733 91.7227L387.154 102.938ZM388.631 103.43L423.865 115.594L385.431 128.812L350.302 115.594L388.631 103.43ZM390.248 102.938L425.482 91.7227L460.717 102.938L425.482 115.066L390.248 102.938ZM462.369 103.43L500.663 115.594L465.534 128.812L427.1 115.594L462.369 103.43ZM463.846 102.938L496.267 91.7227L534.35 102.938L502.14 115.066L463.846 102.938ZM497.674 91.2305L527.633 80.8945L565.364 91.2305L535.721 102.41L497.674 91.2305ZM528.864 80.4727L556.608 70.875L593.952 80.4727L566.595 90.7734L528.864 80.4727ZM527.282 80.0156L492.329 70.4531L520.319 61.5586L555.026 70.4531L527.282 80.0156ZM490.852 70.0664L458.396 61.207L486.527 52.9102L518.842 61.207L490.852 70.0664ZM457.024 60.8203L426.784 52.5586L454.985 44.8242L485.155 52.5586L457.024 60.8203ZM455.723 61.207L425.482 70.0664L395.242 61.207L425.482 52.9102L455.723 61.207ZM393.976 60.8203L365.809 52.5586L395.98 44.8242L424.181 52.5586L393.976 60.8203ZM392.604 61.207L360.148 70.0664L332.158 61.207L364.473 52.9102L392.604 61.207ZM358.671 70.4531L323.718 80.0156L295.974 70.4531L330.681 61.5586L358.671 70.4531ZM322.136 80.4727L284.405 90.7734L257.048 80.4727L294.392 70.875L322.136 80.4727ZM323.402 80.8945L353.361 91.2305L315.314 102.41L285.671 91.2305L323.402 80.8945ZM313.556 102.938L272.203 115.066L243.052 102.938L283.948 91.7227L313.556 102.938ZM314.892 103.43L347.067 115.594L305.292 128.812L273.504 115.594L314.892 103.43ZM348.579 116.191L383.673 129.48L341.582 143.965L306.769 129.48L348.579 116.191ZM385.29 130.078L423.724 144.633L381.457 160.559L343.199 144.598L385.29 130.078ZM387.048 129.445L425.482 116.156L463.917 129.445L425.482 143.93L387.048 129.445ZM465.71 130.078L507.801 144.633L469.543 160.559L427.276 144.633L465.71 130.078ZM467.327 129.445L502.421 116.156L544.196 129.445L509.383 143.93L467.327 129.445ZM503.898 115.629L536.073 103.465L577.425 115.629L545.637 128.848L503.898 115.629ZM537.444 102.938L567.052 91.7227L607.948 102.938L578.797 115.066L537.444 102.938ZM568.318 91.2305L595.675 80.8945L636.008 91.2305L609.178 102.41L568.318 91.2305ZM596.836 80.4727L622.154 70.875L661.924 80.4727L637.134 90.7734L596.836 80.4727ZM595.113 80.0156L557.769 70.4531L583.509 61.5586L620.431 70.4531L595.113 80.0156ZM556.186 70.0664L521.515 61.207L547.571 52.9102L581.962 61.207L556.186 70.0664ZM520.038 60.8203L487.722 52.5586L513.99 44.8242L546.094 52.5586L520.038 60.8203ZM486.351 52.207L456.18 44.5078L482.589 37.2656L512.618 44.5078L486.351 52.207ZM454.915 44.1563L426.713 36.9492L453.156 30.1641L481.323 36.9492L454.915 44.1563ZM453.719 44.4727L425.482 52.1719L397.281 44.4727L425.518 37.2305L453.719 44.4727ZM396.085 44.1563L369.677 36.9492L397.844 30.1641L424.287 36.9492L396.085 44.1563ZM394.784 44.4727L364.614 52.1719L338.346 44.4727L368.376 37.2305L394.784 44.4727ZM363.278 52.5586L330.962 60.8203L304.87 52.5586L336.975 44.8242L363.278 52.5586ZM329.485 61.207L294.814 70.0664L269.039 61.207L303.429 52.9102L329.485 61.207ZM293.231 70.4531L255.887 80.0156L230.534 70.4531L267.456 61.5586L293.231 70.4531ZM254.164 80.4727L213.831 90.7734L189.041 80.4727L228.811 70.875L254.164 80.4727ZM255.325 80.8945L282.682 91.2305L241.822 102.41L214.992 91.2305L255.325 80.8945ZM239.958 102.938L195.546 115.066L169.455 102.938L213.163 91.7227L239.958 102.938ZM241.189 103.43L270.304 115.594L225.224 128.812L196.742 115.594L241.189 103.43ZM271.641 116.191L303.394 129.48L257.681 143.965L226.525 129.48L271.641 116.191ZM304.87 130.078L339.647 144.633L293.372 160.559L259.122 144.633L304.87 130.078ZM341.265 145.301L379.523 161.297L332.826 178.91L294.989 161.297L341.265 145.301ZM381.281 162.035L423.548 179.719L376.605 199.266L334.584 179.719L381.281 162.035ZM383.216 161.262L425.482 145.266L467.749 161.262L425.482 178.875L383.216 161.262ZM469.719 162.035L516.416 179.719L474.395 199.266L427.452 179.719L469.719 162.035ZM471.512 161.262L509.77 145.266L556.046 161.262L518.209 178.875L471.512 161.262ZM511.353 144.598L546.13 130.043L591.878 144.598L557.628 160.523L511.353 144.598ZM547.606 129.445L579.359 116.156L624.475 129.445L593.319 143.93L547.606 129.445ZM580.696 115.629L609.811 103.465L654.223 115.629L625.74 128.848L580.696 115.629ZM611.077 102.938L637.872 91.7227L681.581 102.938L655.489 115.066L611.077 102.938ZM638.997 91.2305L663.753 80.8945L706.688 91.2305L682.671 102.41L638.997 91.2305ZM664.808 80.4727L687.734 70.875L729.896 80.4727L707.707 90.7734L664.808 80.4727ZM662.979 80.0156L623.244 70.4531L646.768 61.5586L685.941 70.4531L662.979 80.0156ZM621.556 70.0664L584.634 61.207L608.616 52.9102L645.081 61.207L621.556 70.0664ZM583.052 60.8203L548.661 52.5586L572.995 44.8242L607.033 52.5586L583.052 60.8203ZM547.22 52.207L515.115 44.5078L539.695 37.2656L571.553 44.5078L547.22 52.207ZM513.779 44.1563L483.749 36.9492L508.504 30.1641L538.358 36.9492L513.779 44.1563ZM482.448 36.6328L454.282 29.8477L479.142 23.4844L507.203 29.8477L482.448 36.6328ZM453.086 29.5664L426.643 23.2031L451.539 17.1914L477.947 23.2031L453.086 29.5664ZM451.961 29.8828L425.518 36.668L399.074 29.8828L425.518 23.5195L451.961 29.8828ZM397.914 29.5664L373.053 23.2031L399.461 17.1914L424.357 23.2031L397.914 29.5664ZM396.718 29.8828L368.552 36.668L343.797 29.8828L371.858 23.5195L396.718 29.8828ZM367.286 36.9492L337.256 44.1563L312.677 36.9492L342.531 30.1641L367.286 36.9492ZM335.885 44.4727L303.78 52.1719L279.447 44.4727L311.305 37.2305L335.885 44.4727ZM302.304 52.5586L267.948 60.8203L243.932 52.5586L277.97 44.8242L302.304 52.5586ZM266.366 61.207L229.444 70.0664L205.919 61.207L242.384 52.9102L266.366 61.207ZM227.756 70.4531L188.021 80.0156L165.059 70.4531L204.232 61.5586L227.756 70.4531ZM186.228 80.4727L143.328 90.7734L121.139 80.4727L163.301 70.875L186.228 80.4727ZM187.247 80.8945L212.003 91.2305L168.329 102.41L144.312 91.2305L187.247 80.8945ZM166.325 102.938L118.889 115.066L95.8215 102.938L142.343 91.7227L166.325 102.938ZM167.45 103.43L193.507 115.594L145.086 128.812L119.944 115.594L167.45 103.43ZM194.702 116.191L223.15 129.48L173.78 143.965L146.246 129.48L194.702 116.191ZM224.451 130.078L255.571 144.633L205.286 160.559L175.01 144.633L224.451 130.078ZM257.012 145.301L291.262 161.297L240.134 178.875L206.693 161.262L257.012 145.301ZM292.844 162.035L330.681 179.719L278.849 199.266L241.716 179.719L292.844 162.035ZM332.404 180.492L374.425 200.109L321.995 221.941L280.537 200.109L332.404 180.492ZM376.359 201.059L423.302 222.996L370.521 247.535L323.894 222.996L376.359 201.059ZM378.574 200.145L425.518 180.527L472.461 200.145L425.518 221.977L378.574 200.145ZM474.641 201.059L527.106 222.996L480.479 247.535L427.698 222.996L474.641 201.059ZM476.576 200.145L518.596 180.527L570.463 200.145L529.005 221.977L476.576 200.145ZM520.354 179.684L558.191 162L609.319 179.684L572.186 199.23L520.354 179.684ZM559.773 161.262L594.023 145.266L644.342 161.262L610.901 178.875L559.773 161.262ZM595.429 144.598L626.549 130.043L675.954 144.598L645.678 160.523L595.429 144.598ZM627.885 129.445L656.333 116.156L704.789 129.445L677.256 143.93L627.885 129.445ZM657.493 115.629L683.55 103.465L731.021 115.629L705.879 128.848L657.493 115.629ZM684.675 102.938L708.657 91.7227L755.179 102.938L732.111 115.066L684.675 102.938ZM709.677 91.2305L731.83 80.8945L777.367 91.2305L756.163 102.41L709.677 91.2305ZM732.744 80.4727L753.245 70.875L797.832 80.4727L778.246 90.7734L732.744 80.4727ZM730.81 80.0156L688.684 70.4531L709.958 61.5586L751.381 70.4531L730.81 80.0156ZM686.89 70.0664L647.753 61.207L669.66 52.9102L708.2 61.207L686.89 70.0664ZM646.1 60.8203L609.635 52.5586L632.035 44.8242L668.043 52.5586L646.1 60.8203ZM608.088 52.207L574.05 44.5078L596.801 37.2656L630.488 44.5078L608.088 52.207ZM572.608 44.1563L540.75 36.9492L563.782 30.1641L595.359 36.9492L572.608 44.1563ZM539.413 36.6328L509.559 29.8477L532.802 23.4844L562.481 29.8477L539.413 36.6328ZM508.258 29.5664L480.197 23.2031L503.581 17.1914L531.501 23.2031L508.258 29.5664ZM479.002 22.957L452.594 16.9805L476.083 11.3203L502.421 16.9805L479.002 22.957ZM451.469 16.6992L426.573 11.0391L450.097 5.73047L474.958 11.0742L451.469 16.6992ZM450.414 16.9805L425.518 22.957L400.622 16.9805L425.518 11.3203L450.414 16.9805ZM399.532 16.6992L376.042 11.0391L400.903 5.69531L424.428 11.0391L399.532 16.6992ZM398.406 16.9805L371.998 22.957L348.579 16.9805L374.917 11.3203L398.406 16.9805ZM370.803 23.2383L342.742 29.6016L319.463 23.2383L347.384 17.2266L370.803 23.2383ZM341.476 29.8828L311.622 36.668L288.554 29.8828L318.233 23.5195L341.476 29.8828ZM310.251 36.9492L278.392 44.1563L255.606 36.9492L287.183 30.1641L310.251 36.9492ZM276.95 44.4727L242.912 52.1719L220.512 44.4727L254.199 37.2305L276.95 44.4727ZM241.365 52.5586L204.9 60.8203L182.993 52.5586L219 44.8242L241.365 52.5586ZM203.247 61.207L164.11 70.0664L142.8 61.207L181.34 52.9102L203.247 61.207ZM162.316 70.4531L120.19 80.0156L99.6543 70.4531L141.077 61.5586L162.316 70.4531ZM118.256 80.4727L72.754 90.7734L53.1677 80.4727L97.7555 70.875L118.256 80.4727ZM119.205 80.8945L141.359 91.2305L94.872 102.41L73.6682 91.2305L119.205 80.8945ZM92.727 102.938L42.2318 115.066L22.2235 102.938L71.5584 91.7227L92.727 102.938ZM93.7116 103.43L116.709 115.594L64.9828 128.812L43.1812 115.594L93.7116 103.43ZM117.764 116.191L142.871 129.48L89.8788 143.965L66.0025 129.48L117.764 116.191ZM144.031 130.078L171.494 144.633L117.236 160.559L90.9689 144.633L144.031 130.078ZM172.76 145.301L202.966 161.297L147.442 178.91L118.432 161.297L172.76 145.301ZM204.372 162.035L237.743 179.719L180.988 199.266L148.778 179.719L204.372 162.035ZM239.325 180.492L276.423 200.109L218.508 221.941L182.5 200.145L239.325 180.492ZM278.111 201.059L319.534 222.996L260.599 247.5L220.161 222.961L278.111 201.059ZM321.468 224.016L368.06 248.66L308.281 276.434L262.463 248.66L321.468 224.016ZM370.24 249.82L423.021 277.734L362.75 309.445L310.462 277.734L370.24 249.82ZM372.737 248.66L425.518 224.016L478.299 248.66L425.518 276.434L372.737 248.66ZM480.76 249.82L540.539 277.77L488.25 309.48L427.979 277.734L480.76 249.82ZM482.94 248.66L529.532 224.016L588.502 248.66L542.684 276.434L482.94 248.66ZM531.466 222.996L572.889 201.059L630.839 222.996L590.401 247.535L531.466 222.996ZM574.612 200.145L611.71 180.527L668.535 200.145L632.562 221.977L574.612 200.145ZM613.257 179.684L646.628 162L702.222 179.684L670.012 199.23L613.257 179.684ZM648.034 161.262L678.24 145.266L732.568 161.262L703.558 178.84L648.034 161.262ZM679.506 144.598L706.969 130.043L760.031 144.598L733.764 160.523L679.506 144.598ZM708.129 129.445L733.236 116.156L785.033 129.445L761.156 143.93L708.129 129.445ZM734.291 115.629L757.288 103.465L807.819 115.629L786.017 128.848L734.291 115.629ZM758.273 102.938L779.442 91.7227L828.777 102.938L808.768 115.066L758.273 102.938ZM780.321 91.2305L799.872 80.8945L848.011 91.2305L829.585 102.41L780.321 91.2305ZM449.042 5.48438L425.518 10.8281L401.993 5.48438L425.518 0.421875L449.042 5.48438ZM51.1282 80.8945L70.6793 91.2305L21.3796 102.41L2.95376 91.2305L51.1282 80.8945ZM365.212 310.957L425.482 279.035L485.753 310.957L425.482 347.52L365.212 310.957Z" fill="white"/>
</g>
<defs>
<clipPath id="clip0">
<rect width="851" height="351" fill="white"/>
</clipPath>
</defs>
</svg>
